{"title":"Priest 2011 SWESUB 720p BRRip XviD-ASPiRE","uid":6579593,"size":2625478656,"categoryP":"video","categoryS":"hd___movies","magnet":"?xt=urn:btih:51299e25c1d88d719150b710356885e7913ab85e&amp;dn=Priest+2011+SWESUB+720p+BRRip+XviD-ASPiRE&amp;tr=udp%3A%2F%2Ftracker.openbittorrent.com%3A80&amp;tr=udp%3A%2F%2Fopen.demonii.com%3A1337&amp;tr=udp%3A%2F%2Ftracker.coppersurfer.tk%3A6969&amp;tr=udp%3A%2F%2Fexodus.desync.com%3A6969","seeders":1,"leechers":0,"uploader":"xASPiREx","files":-1,"time":1312359063,"description":"Priest 2011 SWESUB 720p BRRip XviD-ASPiRE\n\nUndertext: WhoKnow\n &lt;a href=&quot;\nhttp://www.imdb.com/title/tt0822847/&quot; rel=&quot;nofollow&quot; target=&quot;_NEW&quot;&gt;\nhttp://www.imdb.com/title/tt0822847/&lt;/a&gt;\n\nHandling:\n\n'Priest' utspelar sig i en postapokalyptisk parallellvÃƒÂ¤rld. \nEtt krig mellan krigarprÃƒÂ¤ster och vampyrer har fÃƒÂ¶rvandlat vÃƒÂ¤rlden till \nett ÃƒÂ¶delandskap. PrÃƒÂ¤sterna tycks ÃƒÂ¤ntligen ha segrat och avskedas dÃƒÂ¤rfÃƒÂ¶r av \nkyrkans ledare. I stÃƒÂ¤ngda och smutsiga stÃƒÂ¤der styr nu kyrkan folket med \njÃƒÂ¤rnhand, och krigarprÃƒÂ¤sterna ÃƒÂ¤r utstÃƒÂ¶tta och fruktade. NÃƒÂ¤r en krigarprÃƒÂ¤st\nfÃƒÂ¥r bud om att hans brors familj har attackerats av vampyrer, ger han sig av\nfÃƒÂ¶r att hitta och rÃƒÂ¤dda deras dotter som blivit kidnappad. Kyrkans ledare vÃƒÂ¤grar\ntro pÃƒÂ¥ krigarprÃƒÂ¤sternas varningar, i stÃƒÂ¤llet bannlyser man budbÃƒÂ¤rarna.\n\niNFO:\n\nGenre: Action, SkrÃƒÂ¤ck, Sci-Fi, Thriller\nRegi: Scott Charles Stewart\nMedverkande: Paul Bettany, Karl Urban, Cam Gigandet, Maggie Q, Lily Collins\nProduktionsland: USA\nSprÃƒÂ¥k: Engelska\nText: Svenska\n\nGeneral:\nFormat                           : AVI\nFormat/Info                      : Audio Video Interleave\nFormat profile                   : OpenDML\nFile size                        : 2.45 GiB\nDuration                         : 1h 27mn\nOverall bit rate                 : 4 003 Kbps\n\nVideo:\nID                               : 0\nFormat                           : MPEG-4 Visual\nFormat profile                   : Advanced Simple@L5\nFormat settings, BVOP            : 1\nFormat settings, QPel            : No\nFormat settings, GMC             : No warppoints\nFormat settings, Matrix          : Default (H.263)\nMuxing mode                      : Packed bitstream\nCodec ID                         : XVID\nCodec ID/Hint                    : XviD\nDuration                         : 1h 27mn\nBit rate                         : 3 353 Kbps\nWidth                            : 1 280 pixels\nHeight                           : 528 pixels\nDisplay aspect ratio             : 2.40:1\nFrame rate                       : 23.976 fps\nColor space                      : YUV\nChroma subsampling               : 4:2:0\nBit depth                        : 8 bits\nScan type                        : Progressive\nCompression mode                 : Lossy\nBits/(Pixel*Frame)               : 0.207\nStream size                      : 2.05 GiB (84%)\nWriting library                  : XviD 62\n\nAudio:\nID                               : 1\nFormat                           : AC-3\nFormat/Info                      : Audio Coding 3\nMode extension                   : CM (complete main)\nCodec ID                         : 2000\nDuration                         : 1h 27mn\nBit rate mode                    : Constant\nBit rate                         : 640 Kbps\nChannel(s)                       : 6 channels\nChannel positions                : Front: L C R, Side: L R, LFE\nSampling rate                    : 48.0 KHz\nBit depth                        : 16 bits\nCompression mode                 : Lossy\nStream size                      : 400 MiB (16%)\nAlignment                        : Split accross interleaves\nInterleave, duration             : 64 ms (1.53 video frames)\nInterleave, preload duration     : 500 ms\n\nASPiRE","torrent":{"xt":"urn:btih:51299e25c1d88d719150b710356885e7913ab85e","amp;dn":"Priest+2011+SWESUB+720p+BRRip+XviD-ASPiRE","amp;tr":["udp%3A%2F%2Ftracker.openbittorrent.com%3A80","udp%3A%2F%2Fopen.demonii.com%3A1337","udp%3A%2F%2Ftracker.coppersurfer.tk%3A6969","udp%3A%2F%2Fexodus.desync.com%3A6969"],"infoHash":"51299e25c1d88d719150b710356885e7913ab85e","infoHashBuffer":{"type":"Buffer","data":[81,41,158,37,193,216,141,113,145,80,183,16,53,104,133,231,145,58,184,94]},"announce":[],"urlList":[]}}